<svg width="184" height="18" viewBox="0 0 184 18" fill="none" xmlns="http://www.w3.org/2000/svg">
<g clip-path="url(#clip0_416_14)">
<path d="M9.35001 7.51C5.00001 6.37 4.24001 6.2 4.24001 4.89C4.24001 3.58 5.64001 2.94 6.83001 2.94C8.63001 2.94 10.1 3.47 10.23 5.53H13.89C13.89 1.53 10.59 0 7.00001 0C3.89001 0 0.580011 1.69 0.580011 5.2C0.580011 8.43 3.16001 9.41 5.71001 10.09C8.26001 10.77 10.81 11.09 10.81 12.93C10.81 14.77 8.81001 15.07 7.47001 15.07C5.47001 15.07 3.66001 14.18 3.66001 11.89H1.12678e-05C-0.0599887 16.11 3.52001 18 7.31001 18C11.98 18 14.45 15.64 14.45 12.48C14.45 8.59 10.61 7.8 9.35001 7.51Z" fill="white"/>
<path d="M32.47 0.399994H36.24V17.6H32.47V0.399994Z" fill="white"/>
<path d="M50.05 11.93L42.83 0.399994H39.08V17.58H42.61V6.07999H42.67L49.82 17.58H53.59V3.57999H58.59V17.58H62.37V3.57999H67.53V0.399994H50.05V11.93Z" fill="white"/>
<path d="M20.91 0.399994L14.38 17.58H18.22L19.56 13.75H26L27.3 17.58H31.2L24.79 0.399994H20.91ZM20.55 10.94L22.78 4.62999H22.84L25 10.94H20.55Z" fill="white"/>
<path d="M144 10.2H152.33V7.25999H144V3.56999H153V0.399994H140.19V17.58H153.19V14.41H144V10.2Z" fill="white"/>
<path d="M166.38 0.399994V11.93L159.16 0.399994H155.42V17.58H159V6.07999L166.14 17.58H169.92V3.57999H174.92V17.58H178.69V3.57999H183.84V0.399994H166.38Z" fill="white"/>
<path d="M134.74 9.51V9.45C135.6 9.12492 136.331 8.52834 136.822 7.75062C137.313 6.97291 137.537 6.05642 137.46 5.14C137.464 4.49419 137.335 3.85447 137.082 3.2604C136.829 2.66634 136.456 2.13057 135.987 1.68626C135.519 1.24195 134.964 0.898548 134.357 0.677301C133.75 0.456055 133.105 0.361673 132.46 0.399996H123.2V17.58H126.97V10.87H130.75C132.65 10.87 133.34 11.66 133.62 13.46C133.661 14.8518 133.862 16.2342 134.22 17.58H138C137.32 16.58 137.35 14.58 137.28 13.52C137.13 11.79 136.6 9.99 134.74 9.51ZM131.09 8.18H127V3.34H131.13C132.82 3.34 133.73 4.06 133.73 5.72C133.73 7.38 132.76 8.17 131.09 8.17V8.18Z" fill="white"/>
<path d="M116.62 11.08C116.62 13.63 115.76 14.81 113.07 14.81C110.01 14.81 109.54 12.96 109.54 11.08V0.399994H105.76V11.08C105.76 15.75 108.45 17.98 113.08 17.98C117.71 17.98 120.41 15.72 120.41 11.08V0.399994H116.64V11.08H116.62Z" fill="white"/>
<path d="M94.87 0.399994L88.34 17.58H92.17L93.51 13.75H99.94L101.23 17.58H105.15L98.74 0.399994H94.87ZM94.5 10.94L96.74 4.62999H96.8L99 10.94H94.5Z" fill="white"/>
<path d="M79.0001 0.399994H75.1801V17.58H87.3301V14.41H79.0001V0.399994Z" fill="white"/>
</g>
<defs>
<clipPath id="clip0_416_14">
<rect width="183.81" height="18" fill="white"/>
</clipPath>
</defs>
</svg>
